<svg xmlns="http://www.w3.org/2000/svg" viewBox="0 0 64 64">
  <!-- Draw AOI: polygon vertices + corner bracket -->
  <rect width="64" height="64" rx="12" fill="#0d1117"/>
  <polygon points="32,14 50,26 44,48 20,48 14,26"
           fill="none" stroke="#2dd4bf" stroke-width="2.5" stroke-linejoin="round"
           stroke-dasharray="5 4"/>
  <circle cx="32" cy="14" r="3.5" fill="#f59e0b"/>
  <circle cx="50" cy="26" r="3.5" fill="#f59e0b"/>
  <circle cx="44" cy="48" r="3.5" fill="#f59e0b"/>
  <circle cx="20" cy="48" r="3.5" fill="#f59e0b"/>
  <circle cx="14" cy="26" r="3.5" fill="#f59e0b"/>
  <path d="M8 8h10v4M8 8v10h4M56 8h-10v4M56 8v10h-4M8 56h10v-4M8 56v-10h4M56 56h-10v-4M56 56v-10h-4"
        fill="none" stroke="#334155" stroke-width="2" stroke-linecap="round"/>
</svg>
