<svg xmlns="http://www.w3.org/2000/svg" viewBox="0 0 64 64">
  <defs>
    <linearGradient id="eoCloud" x1="0" y1="0" x2="1" y2="1">
      <stop offset="0%" stop-color="#450a0a"/>
      <stop offset="100%" stop-color="#000000"/>
    </linearGradient>
    <clipPath id="eoClip">
      <path d="M44 22c0-6.5-5.3-11.8-11.8-11.8-3.8 0-7.2 1.8-9.3 4.6-4.8 0.6-8.5 4.8-8.5 9.8 0 5.4 4.4 9.8 9.8 9.8h19.5c5.2 0 9.3-4.2 9.3-9.3 0-3.3-1.7-6.2-4.3-7.8z"/>
    </clipPath>
  </defs>
  <path d="M44 22c0-6.5-5.3-11.8-11.8-11.8-3.8 0-7.2 1.8-9.3 4.6-4.8 0.6-8.5 4.8-8.5 9.8 0 5.4 4.4 9.8 9.8 9.8h19.5c5.2 0 9.3-4.2 9.3-9.3 0-3.3-1.7-6.2-4.3-7.8z"
        fill="url(#eoCloud)" fill-opacity="0.55" stroke="#000000" stroke-width="2.5" stroke-linejoin="round"/>
  <g clip-path="url(#eoClip)">
    <rect x="14" y="14" width="8" height="22" fill="#000000"/>
    <rect x="23" y="14" width="8" height="22" fill="#450a0a"/>
    <rect x="32" y="14" width="8" height="22" fill="#7f1d1d"/>
    <rect x="41" y="14" width="8" height="22" fill="#b91c1c"/>
    <rect x="50" y="14" width="8" height="22" fill="#dc2626"/>
  </g>
  <rect x="14" y="44" width="36" height="5" rx="1.5" fill="#000000" stroke="#7f1d1d" stroke-width="1"/>
  <rect x="14" y="52" width="28" height="5" rx="1.5" fill="#1a0000" stroke="#000000" stroke-width="1"/>
  <rect x="16" y="45.5" width="14" height="2" rx="0.5" fill="#ef4444"/>
</svg>
