<svg xmlns="http://www.w3.org/2000/svg" viewBox="0 0 64 64">
  <!-- Cloud shape -->
  <path d="M49 30c0-7.7-6.3-14-14-14-5.6 0-10.4 3.3-12.6 8C17.2 24.5 13 29 13 34.4 13 40.4 17.8 45 24 45h24c4.9 0 9-4.1 9-9 0-3.8-2.4-7-5.8-8.2z"
        fill="#DBEAFE" stroke="#2563EB" stroke-width="2.5" stroke-linejoin="round"/>
  <!-- Network nodes inside cloud -->
  <circle cx="29" cy="31" r="3.5" fill="#2563EB"/>
  <circle cx="40" cy="31" r="3.5" fill="#2563EB"/>
  <circle cx="34.5" cy="39" r="3.5" fill="#2563EB"/>
  <!-- Network edges -->
  <line x1="29" y1="31" x2="40" y2="31" stroke="#2563EB" stroke-width="2"/>
  <line x1="29" y1="31" x2="34.5" y2="39" stroke="#2563EB" stroke-width="2"/>
  <line x1="40" y1="31" x2="34.5" y2="39" stroke="#2563EB" stroke-width="2"/>
  <!-- Upload arrow below -->
  <line x1="32" y1="50" x2="32" y2="59" stroke="#64748B" stroke-width="2.5" stroke-linecap="round"/>
  <path d="M27.5 54.5 L32 50 L36.5 54.5" fill="none" stroke="#64748B" stroke-width="2.5" stroke-linecap="round" stroke-linejoin="round"/>
</svg>
