<svg xmlns="http://www.w3.org/2000/svg" viewBox="0 0 64 64">
  <!-- openEO: cloud processing + stacked EO bands -->
  <rect width="64" height="64" rx="12" fill="#0d1117"/>
  <path d="M44 22c0-6-5-11-11-11-4 0-8 2-10 5-5 1-9 5-9 11 0 6 5 11 11 11h17c5 0 9-4 9-9 0-3-2-6-5-7z"
        fill="none" stroke="#64748b" stroke-width="2" stroke-linejoin="round"/>
  <rect x="14" y="36" width="36" height="5" rx="1" fill="#f59e0b" opacity="0.9"/>
  <rect x="14" y="44" width="36" height="5" rx="1" fill="#2dd4bf" opacity="0.75"/>
  <rect x="14" y="52" width="28" height="5" rx="1" fill="#38bdf8" opacity="0.55"/>
  <line x1="32" y1="32" x2="32" y2="36" stroke="#94a3b8" stroke-width="2" stroke-linecap="round"/>
</svg>
